<svg
   width="14"
   height="11"
   viewBox="0 0 14 11">
  <path
     style="fill:currentColor"
     d="m 12.405805,6.997486 q -1.530692,3.238703 -3.4067239,3.238703 -1.5960107,0 -1.6146836,-2.492039 -2.6880331,2.492039 -4.6573937,2.492039 -1.1200138,0 -1.7080121,-0.765336 Q 0.34698338,8.621506 0.62698684,7.24948 1.0843288,4.953452 3.1376815,2.816089 q 2.3147012,-2.40803 4.4147181,-2.40803 1.2786795,0 1.6520293,1.017349 0.3173313,0.802683 0.065409,2.650705 1.3440161,-1.540027 2.2773551,-3.30404 H 13.38588 Q 11.201853,3.908111 8.999153,6.306805 8.625821,8.705498 9.35383,8.705498 q 0.849347,0 1.512018,-1.708012 z M 7.5710725,5.896127 Q 7.8790673,4.346781 7.8697488,3.0121 7.8787088,1.88275 6.9923927,1.88275 q -1.0640131,0 -2.3986933,1.297352 -1.8386863,1.820014 -2.268019,3.938722 -0.3173492,1.586674 0.9613303,1.586674 0.8026825,0 1.8200314,-0.634663 Q 5.9563889,7.548156 6.8337271,6.689473 7.5523996,5.980137 7.5710725,5.896127 Z" />
</svg>
