<svg
   width="160"
   height="22"
   viewBox="0 0 160 22"
   version="1.1">
  <path
     style="fill:currentColor"
     d="M 36.205078,1.171875 C 35.157998,2.0715835 33.337485,3.0831079 31.289062,4.1269531 31.037581,4.2387011 30.870178,4.3536039 30.605469,4.4628906 27.948248,5.5599172 24.644104,6.5862555 21.152344,7.390625 14.168818,8.9993638 6.3467743,9.6617023 1.5332031,8.6660156 L 0.61523438,13.103516 c 4.02220972,0.831993 8.94542152,0.684687 13.95703162,0.03125 -0.722773,0.713037 -1.374103,1.533692 -1.583985,2.71875 -0.240578,1.358354 0.422402,2.860297 1.388672,3.769531 0.976125,0.918517 2.039455,1.134746 3.132813,1.271484 1.093359,0.136734 2.286139,0.117215 3.601562,0 2.630857,-0.234434 5.740743,-0.882487 8.9375,-1.833984 l -1.292969,-4.34375 c -2.95856,0.8806 -5.848849,1.468199 -8.046875,1.664062 -1.099011,0.09793 -2.027935,0.09178 -2.636718,0.01563 -0.154049,-0.01927 -0.207447,-0.04764 -0.310547,-0.07617 0.07405,-0.09555 0.0048,-0.02497 0.164062,-0.169921 0.924274,-0.84223 3.097916,-2.085576 5.660157,-3.316407 3.596405,-1.727618 7.892467,-3.4769751 11.480468,-5.4941402 1.57314,-0.8032103 2.986293,-1.6604549 4.03125,-2.6875 0.01808,-0.015407 0.04454,-0.027514 0.0625,-0.042969 l -0.0059,-0.00781 c 0.04953,-0.049389 0.111955,-0.090511 0.160156,-0.140625 z"
     id="path5044" />
  <path
     style="fill:currentColor"
     d="M 75.708984,0.50976562 C 71.706074,5.0374675 63.598714,13.501863 50.982422,15.744141 l 0.792969,4.46289 c 2.378154,-0.422665 4.554575,-1.091159 6.640625,-1.847656 l 1.509765,3.0625 c 2.729454,-1.086309 6.394989,-2.100053 9.777344,-2.357422 3.382355,-0.257368 6.347964,0.295304 8.035156,1.697266 l 2.896485,-3.486328 c -3.098675,-2.574828 -7.263151,-3.035767 -11.275391,-2.730469 -0.0134,9.54e-4 -0.02761,0.0049 -0.04102,0.0059 3.877534,-3.41294 7.353612,-7.2312823 9.990235,-11.3105466 z"
     id="path5052" />
  <path
     style="fill:currentColor"
     d="m 112.30078,0.97070312 -3.22461,3.57226568 c 3.87451,4.0598121 10.49091,12.3896002 13.03125,16.6367192 L 126.25,18.701172 c -1.39944,-2.339678 -3.59964,-5.377317 -5.95312,-8.392578 2.32963,0.645655 4.66641,1.065289 6.94726,1.013672 L 127.13477,6.4980469 C 122.53652,6.6021104 117.11996,4.7114653 112.30078,0.97070312 Z"
     id="path5050" />
  <path
     style="fill:currentColor"
     d="M 84.806641,0.9765625 C 83.477122,6.3075224 82.052776,15.678968 81.978516,21.160156 l 4.53125,0.06055 c 0.06384,-4.712034 1.491487,-14.3273542 2.693359,-19.1464872 z"
     id="path5048" />
  <path
     style="fill:currentColor"
     d="M 47.613281,1.0253906 C 44.818192,5.5782545 39.322204,9.8600612 31.4375,13.867188 l 1.158203,4.283203 c 0.840154,-0.04892 1.482362,-0.247562 2.414063,-0.523438 0.875071,-0.259109 1.93488,-0.617013 3.09375,-1.025391 -0.09323,0.136671 -0.203226,0.239958 -0.289063,0.394532 -0.248496,0.447502 -0.513124,1.052711 -0.419922,1.894531 0.0932,0.841814 0.726862,1.695119 1.326172,2.066406 0.983628,0.609384 1.559798,0.525864 2.255859,0.539063 0.696056,0.01321 1.45751,-0.04512 2.324219,-0.15625 1.733423,-0.222213 3.86753,-0.667479 6.22461,-1.330078 l -1.22461,-4.363282 c -1.007202,0.283131 -1.69679,0.36213 -2.582031,0.554688 0.846246,-0.574272 1.378128,-1.024766 2.376953,-1.646484 4.590352,-2.857263 10.273184,-5.9745701 13.273438,-7.7695318 0.0019,-9.54e-4 0.0061,-0.00295 0.0078,-0.00391 L 59.042969,2.8964844 c -0.0014,9.54e-4 -0.0044,0.00296 -0.0059,0.00391 -4.77e-4,3.148e-4 -0.0034,0.00148 -0.0039,0.00195 C 57.917024,3.5754275 53.004953,5.7687825 47.886685,7.9042975 49.269232,6.4707341 50.50224,4.983482 51.476528,3.396485 Z"
     id="path5046" />
  <path
     style="fill:currentColor"
     d="m 132.27344,1.3828125 -3.12891,3.2636719 c 0.0698,0.077537 0.17048,0.1511119 0.24219,0.2285156 l -0.002,0.00195 c 0.003,0.00239 0.007,0.00528 0.01,0.00781 1.43615,1.5484692 3.26447,3.0610165 5.31836,4.5117188 1.63628,1.4558872 3.13091,2.8859422 4.16016,4.1230462 0.88006,1.057798 1.21764,1.854797 1.33203,2.134766 -0.10339,0.05743 -0.16005,0.122261 -0.62305,0.222656 -2.52725,0.547989 -6.70816,-0.340181 -9.03515,-5.115234 l -4.07422,1.986328 c 3.18474,6.535189 9.48938,8.549942 14.07031,7.556641 1.14596,-0.248482 2.16327,-0.645465 2.99805,-1.419922 0.83478,-0.774456 1.31796,-1.990666 1.30468,-3.050782 -0.003,-0.242905 -0.0668,-0.453884 -0.0976,-0.68164 5.27263,2.495211 10.60116,4.33945 14.83593,4.621094 l 0.30079,-4.521485 c -3.3659,-0.223854 -9.06878,-2.107465 -14.40625,-4.748047 -2.82482,-1.3975112 -5.5525,-3.0165273 -7.89844,-4.65039 -1.78718,-1.5802664 -3.65426,-3.1046741 -5.30664,-4.4707031 z"
     id="path5042" />
  <path
     style="fill:currentColor"
     d="m 93.408203,1.6953125 c -4.569974,5.7125022 -3.653009,12.3004935 0.144531,15.9824215 3.79754,3.681924 10.192786,4.75914 15.566406,1.294922 l -2.53516,-3.933594 c -3.60462,2.3238 -7.510854,1.471045 -9.773433,-0.722656 -1.723526,-1.67105 -2.644166,-3.947031 -1.480469,-6.8242185 1.481884,1.850261 3.220192,3.3612805 5.265622,4.3515625 3.14135,1.520865 6.84128,1.851699 10.83008,1.039062 l -0.93555,-4.585937 c -3.21402,0.6547901 -5.74945,0.3535929 -7.85546,-0.6660156 -2.106,-1.0196086 -3.879234,-2.8159932 -5.328129,-5.5664063 z"
     id="path5040" />
  <path
     style="fill:currentColor"
     d="M 113.60938,15.458984 A 2.6079903,2.6079903 0 0 0 111,18.066406 a 2.6079903,2.6079903 0 0 0 2.60938,2.609375 2.6079903,2.6079903 0 0 0 2.60742,-2.609375 2.6079903,2.6079903 0 0 0 -2.60742,-2.607422 z"
     id="path7077" />
</svg>
