<?xml version="1.0" encoding="UTF-8" standalone="no"?>
<svg
   xmlns:dc="http://purl.org/dc/elements/1.1/"
   xmlns:cc="http://creativecommons.org/ns#"
   xmlns:rdf="http://www.w3.org/1999/02/22-rdf-syntax-ns#"
   xmlns:svg="http://www.w3.org/2000/svg"
   xmlns="http://www.w3.org/2000/svg"
   xmlns:sodipodi="http://sodipodi.sourceforge.net/DTD/sodipodi-0.dtd"
   xmlns:inkscape="http://www.inkscape.org/namespaces/inkscape"
   width="40"
   height="22"
   viewBox="0 0 40 22"
   version="1.1"
   id="svg10"
   sodipodi:docname="logo-letter.inline.svg"
   inkscape:version="0.92.3 (unknown)">
  <metadata
     id="metadata16">
    <rdf:RDF>
      <cc:Work
         rdf:about="">
        <dc:format>image/svg+xml</dc:format>
        <dc:type
           rdf:resource="http://purl.org/dc/dcmitype/StillImage" />
        <dc:title></dc:title>
      </cc:Work>
    </rdf:RDF>
  </metadata>
  <defs
     id="defs14" />
  <sodipodi:namedview
     pagecolor="#ffffff"
     bordercolor="#666666"
     borderopacity="1"
     objecttolerance="10"
     gridtolerance="10"
     guidetolerance="10"
     inkscape:pageopacity="0"
     inkscape:pageshadow="2"
     inkscape:window-width="1230"
     inkscape:window-height="584"
     id="namedview12"
     showgrid="false"
     inkscape:zoom="8.9095454"
     inkscape:cx="13.763268"
     inkscape:cy="20.169011"
     inkscape:window-x="1959"
     inkscape:window-y="639"
     inkscape:window-maximized="0"
     inkscape:current-layer="svg10" />
  <path
     style="fill:currentColor"
     d="M 36.205078,1.171875 C 35.157998,2.0715835 33.337485,3.0831079 31.289062,4.1269531 31.037581,4.2387011 30.870178,4.3536039 30.605469,4.4628906 27.948248,5.5599172 24.644104,6.5862555 21.152344,7.390625 14.168818,8.9993638 6.3467743,9.6617023 1.5332031,8.6660156 L 0.61523438,13.103516 c 4.02220972,0.831993 8.94542152,0.684687 13.95703162,0.03125 -0.722773,0.713037 -1.374103,1.533692 -1.583985,2.71875 -0.240578,1.358354 0.422402,2.860297 1.388672,3.769531 0.976125,0.918517 2.039455,1.134746 3.132813,1.271484 1.093359,0.136734 2.286139,0.117215 3.601562,0 2.630857,-0.234434 5.740743,-0.882487 8.9375,-1.833984 l -1.292969,-4.34375 c -2.95856,0.8806 -5.848849,1.468199 -8.046875,1.664062 -1.099011,0.09793 -2.027935,0.09178 -2.636718,0.01563 -0.154049,-0.01927 -0.207447,-0.04764 -0.310547,-0.07617 0.07405,-0.09555 0.0048,-0.02497 0.164062,-0.169921 0.924274,-0.84223 3.097916,-2.085576 5.660157,-3.316407 3.596405,-1.727618 7.892467,-3.4769751 11.480468,-5.4941402 1.57314,-0.8032103 2.986293,-1.6604549 4.03125,-2.6875 0.01808,-0.015407 0.04454,-0.027514 0.0625,-0.042969 l -0.0059,-0.00781 c 0.04953,-0.049389 0.111955,-0.090511 0.160156,-0.140625 z"
     id="path5044"
     inkscape:connector-curvature="0" />
</svg>
