<?xml version="1.0" encoding="UTF-8" standalone="no"?>
<svg
   xmlns:dc="http://purl.org/dc/elements/1.1/"
   xmlns:cc="http://creativecommons.org/ns#"
   xmlns:rdf="http://www.w3.org/1999/02/22-rdf-syntax-ns#"
   xmlns:svg="http://www.w3.org/2000/svg"
   xmlns="http://www.w3.org/2000/svg"
   xmlns:sodipodi="http://sodipodi.sourceforge.net/DTD/sodipodi-0.dtd"
   xmlns:inkscape="http://www.inkscape.org/namespaces/inkscape"
   width="25"
   height="25"
   viewBox="0 0 25 25"
   version="1.1"
   id="svg10"
   sodipodi:docname="blog.inline.svg"
   inkscape:version="0.92.3 (unknown)">
  <metadata
     id="metadata16">
    <rdf:RDF>
      <cc:Work
         rdf:about="">
        <dc:format>image/svg+xml</dc:format>
        <dc:type
           rdf:resource="http://purl.org/dc/dcmitype/StillImage" />
        <dc:title></dc:title>
      </cc:Work>
    </rdf:RDF>
  </metadata>
  <defs
     id="defs14" />
  <sodipodi:namedview
     pagecolor="#ffffff"
     bordercolor="#666666"
     borderopacity="1"
     objecttolerance="10"
     gridtolerance="10"
     guidetolerance="10"
     inkscape:pageopacity="0"
     inkscape:pageshadow="2"
     inkscape:window-width="1197"
     inkscape:window-height="1206"
     id="namedview12"
     showgrid="true"
     inkscape:zoom="12.6"
     inkscape:cx="12.836539"
     inkscape:cy="15.219229"
     inkscape:window-x="1771"
     inkscape:window-y="554"
     inkscape:window-maximized="0"
     inkscape:current-layer="svg10">
    <inkscape:grid
       type="xygrid"
       id="grid823" />
  </sodipodi:namedview>
  <path
     style="fill:currentColor"
     d="M 3.4433594,3.882812 2.0253906,3.960942 V 5.37891 19.048832 l 1.5839844,-0.08789 c 3.8497058,-0.212392 6.3605269,1.405862 7.869141,2.849609 l 1.037109,0.992187 1.037109,-0.992187 c 1.508599,-1.443741 4.019447,-3.062001 7.869141,-2.849609 l 1.582031,0.08789 V 3.960942 L 21.585938,3.882812 C 17.427316,3.653377 14.527652,5.248674 12.515625,6.875 10.503605,5.248587 7.6022009,3.653366 3.4433594,3.882812 Z m 1.5820312,3.076172 c 3.0280125,0.209838 5.1467564,1.517388 6.4531254,2.767578 l 1.037109,0.992188 1.037109,-0.992188 c 1.306227,-1.250061 3.423655,-2.55753 6.451172,-2.767578 v 9.105469 c -3.340928,0.195174 -5.75159,1.490756 -7.488281,2.894531 C 10.778745,17.554976 8.3670353,16.257465 5.0253906,16.0625 Z"
     id="path8091-1"
     inkscape:connector-curvature="0" />
</svg>
