<?xml version="1.0" encoding="UTF-8" standalone="no"?>
<svg
   xmlns:dc="http://purl.org/dc/elements/1.1/"
   xmlns:cc="http://creativecommons.org/ns#"
   xmlns:rdf="http://www.w3.org/1999/02/22-rdf-syntax-ns#"
   xmlns:svg="http://www.w3.org/2000/svg"
   xmlns="http://www.w3.org/2000/svg"
   xmlns:sodipodi="http://sodipodi.sourceforge.net/DTD/sodipodi-0.dtd"
   xmlns:inkscape="http://www.inkscape.org/namespaces/inkscape"
   width="25"
   height="25"
   viewBox="0 0 25 25"
   version="1.1"
   id="svg10"
   sodipodi:docname="dislikes-active-small.inline.svg"
   inkscape:version="0.92.3 (unknown)">
  <metadata
     id="metadata16">
    <rdf:RDF>
      <cc:Work
         rdf:about="">
        <dc:format>image/svg+xml</dc:format>
        <dc:type
           rdf:resource="http://purl.org/dc/dcmitype/StillImage" />
        <dc:title></dc:title>
      </cc:Work>
    </rdf:RDF>
  </metadata>
  <defs
     id="defs14" />
  <sodipodi:namedview
     pagecolor="#ffffff"
     bordercolor="#666666"
     borderopacity="1"
     objecttolerance="10"
     gridtolerance="10"
     guidetolerance="10"
     inkscape:pageopacity="0"
     inkscape:pageshadow="2"
     inkscape:window-width="1422"
     inkscape:window-height="1215"
     id="namedview12"
     showgrid="true"
     inkscape:zoom="22.627417"
     inkscape:cx="10.934245"
     inkscape:cy="4.9488188"
     inkscape:window-x="1671"
     inkscape:window-y="670"
     inkscape:window-maximized="0"
     inkscape:current-layer="svg10"
     showguides="true"
     inkscape:guide-bbox="true"
     inkscape:snap-global="true">
    <inkscape:grid
       type="xygrid"
       id="grid823"
       empspacing="5" />
    <sodipodi:guide
       position="12.5,25"
       orientation="1,0"
       id="guide1066"
       inkscape:locked="false"
       inkscape:label=""
       inkscape:color="rgb(0,0,255)" />
  </sodipodi:namedview>
  <path
     style="fill:currentColor"
     d="m 9,5.9980469 c -1.1045695,0 -2,0.8954305 -2,2 0,1.1045695 0.8954305,2 2,2 1.104569,0 2,-0.8954305 2,-2 0,-1.1045695 -0.895431,-2 -2,-2 z m 7,0 c -1.104569,0 -2,0.8954305 -2,2 0,1.1045695 0.895431,2 2,2 1.104569,0 2,-0.8954305 2,-2 0,-1.1045695 -0.895431,-2 -2,-2 z m -3.5,6.5585941 c -1.811044,0 -3.6341989,0.492781 -5.0664062,1.558593 C 6.0013863,15.181046 5,16.885506 5,18.998047 H 20 C 20,16.885506 18.998614,15.181046 17.566406,14.115234 16.134199,13.049422 14.311044,12.556641 12.5,12.556641 Z"
     id="path5511"
     inkscape:connector-curvature="0"
     sodipodi:nodetypes="ssssssssssssccss" />
</svg>
