<?xml version="1.0" encoding="UTF-8" standalone="no"?>
<svg
   xmlns:dc="http://purl.org/dc/elements/1.1/"
   xmlns:cc="http://creativecommons.org/ns#"
   xmlns:rdf="http://www.w3.org/1999/02/22-rdf-syntax-ns#"
   xmlns:svg="http://www.w3.org/2000/svg"
   xmlns="http://www.w3.org/2000/svg"
   xmlns:sodipodi="http://sodipodi.sourceforge.net/DTD/sodipodi-0.dtd"
   xmlns:inkscape="http://www.inkscape.org/namespaces/inkscape"
   width="25"
   height="25"
   viewBox="0 0 25 25"
   version="1.1"
   id="svg10"
   sodipodi:docname="dislikes.inline.svg"
   inkscape:version="0.92.3 (unknown)">
  <metadata
     id="metadata16">
    <rdf:RDF>
      <cc:Work
         rdf:about="">
        <dc:format>image/svg+xml</dc:format>
        <dc:type
           rdf:resource="http://purl.org/dc/dcmitype/StillImage" />
        <dc:title></dc:title>
      </cc:Work>
    </rdf:RDF>
  </metadata>
  <defs
     id="defs14" />
  <sodipodi:namedview
     pagecolor="#ffffff"
     bordercolor="#666666"
     borderopacity="1"
     objecttolerance="10"
     gridtolerance="10"
     guidetolerance="10"
     inkscape:pageopacity="0"
     inkscape:pageshadow="2"
     inkscape:window-width="1197"
     inkscape:window-height="1206"
     id="namedview12"
     showgrid="true"
     inkscape:zoom="22.627417"
     inkscape:cx="12.275171"
     inkscape:cy="10.236475"
     inkscape:window-x="2164"
     inkscape:window-y="579"
     inkscape:window-maximized="0"
     inkscape:current-layer="svg10"
     showguides="true"
     inkscape:guide-bbox="true"
     inkscape:snap-global="false">
    <inkscape:grid
       type="xygrid"
       id="grid823" />
    <sodipodi:guide
       position="12.5,25"
       orientation="1,0"
       id="guide1066"
       inkscape:locked="false"
       inkscape:label=""
       inkscape:color="rgb(0,0,255)" />
  </sodipodi:namedview>
  <path
     style="fill:currentColor"
     d="m 8,4.9980469 a 2,2 0 0 0 -2,2 2,2 0 0 0 2,2 2,2 0 0 0 2,-2 2,2 0 0 0 -2,-2 z m 9,0 a 2,2 0 0 0 -2,2 2,2 0 0 0 2,2 2,2 0 0 0 2,-2 2,2 0 0 0 -2,-2 z M 12.5,16.248047 c -1.986111,0 -3.9704967,0.322859 -5.6582031,1.011719 -1.6877065,0.688859 -3.1307934,1.770342 -3.7695313,3.367187 l 1.8554688,0.742188 C 5.2889965,20.465985 6.2228628,19.672468 7.5976562,19.111328 8.9724499,18.550188 10.736111,18.248047 12.5,18.248047 c 1.763889,0 3.529503,0.302141 4.904297,0.863281 1.374793,0.56114 2.306707,1.354657 2.667969,2.257813 l 1.855468,-0.742188 C 21.288996,19.030108 19.847863,17.948625 18.160156,17.259766 16.47245,16.570906 14.486111,16.248047 12.5,16.248047 Z"
     id="path7321"
     inkscape:connector-curvature="0" />
</svg>
