<?xml version="1.0" encoding="UTF-8" standalone="no"?>
<svg
   xmlns:dc="http://purl.org/dc/elements/1.1/"
   xmlns:cc="http://creativecommons.org/ns#"
   xmlns:rdf="http://www.w3.org/1999/02/22-rdf-syntax-ns#"
   xmlns:svg="http://www.w3.org/2000/svg"
   xmlns="http://www.w3.org/2000/svg"
   xmlns:sodipodi="http://sodipodi.sourceforge.net/DTD/sodipodi-0.dtd"
   xmlns:inkscape="http://www.inkscape.org/namespaces/inkscape"
   width="25"
   height="25"
   viewBox="0 0 25 25"
   version="1.1"
   id="svg10"
   sodipodi:docname="dislikes-active.inline.svg"
   inkscape:version="0.92.3 (unknown)">
  <metadata
     id="metadata16">
    <rdf:RDF>
      <cc:Work
         rdf:about="">
        <dc:format>image/svg+xml</dc:format>
        <dc:type
           rdf:resource="http://purl.org/dc/dcmitype/StillImage" />
        <dc:title></dc:title>
      </cc:Work>
    </rdf:RDF>
  </metadata>
  <defs
     id="defs14" />
  <sodipodi:namedview
     pagecolor="#ffffff"
     bordercolor="#666666"
     borderopacity="1"
     objecttolerance="10"
     gridtolerance="10"
     guidetolerance="10"
     inkscape:pageopacity="0"
     inkscape:pageshadow="2"
     inkscape:window-width="1197"
     inkscape:window-height="1206"
     id="namedview12"
     showgrid="true"
     inkscape:zoom="16"
     inkscape:cx="12.184899"
     inkscape:cy="2.1926347"
     inkscape:window-x="2164"
     inkscape:window-y="579"
     inkscape:window-maximized="0"
     inkscape:current-layer="svg10"
     showguides="true"
     inkscape:guide-bbox="true"
     inkscape:snap-global="false">
    <inkscape:grid
       type="xygrid"
       id="grid823" />
    <sodipodi:guide
       position="12.5,25"
       orientation="1,0"
       id="guide1066"
       inkscape:locked="false"
       inkscape:label=""
       inkscape:color="rgb(0,0,255)" />
  </sodipodi:namedview>
  <path
     style="fill:currentColor"
     d="m 8,4.9980469 c -1.1045695,0 -2,0.8954305 -2,2 0,1.1045695 0.8954305,2 2,2 1.1045695,0 2,-0.8954305 2,-2 0,-1.1045695 -0.8954305,-2 -2,-2 z m 9,0 c -1.104569,0 -2,0.8954305 -2,2 0,1.1045695 0.895431,2 2,2 1.104569,0 2,-0.8954305 2,-2 0,-1.1045695 -0.895431,-2 -2,-2 z m -4.5,9.4375001 c -1.986111,0 -3.9704967,0.437128 -5.6582031,1.369795 -1.6877065,0.932666 -3.1307934,2.396916 -3.7695313,4.55893 l 1.8554688,1.004869 C 5.2889965,19.965475 6.2228628,18.732208 7.5976562,17.860096 8.9724499,16.987985 10.736111,16.518404 12.5,16.518404 c 1.763889,0 3.529503,0.469581 4.904297,1.341692 1.374793,0.872112 2.306707,2.105379 2.667969,3.509045 l 1.855468,-1.004869 C 21.288996,18.202258 19.847863,16.738008 18.160156,15.805342 16.47245,14.872675 14.486111,14.435547 12.5,14.435547 Z"
     id="path7321"
     inkscape:connector-curvature="0"
     sodipodi:nodetypes="ssssssssssssccsssccss" />
</svg>
