<?xml version="1.0" encoding="UTF-8" standalone="no"?>
<svg
   xmlns:dc="http://purl.org/dc/elements/1.1/"
   xmlns:cc="http://creativecommons.org/ns#"
   xmlns:rdf="http://www.w3.org/1999/02/22-rdf-syntax-ns#"
   xmlns:svg="http://www.w3.org/2000/svg"
   xmlns="http://www.w3.org/2000/svg"
   xmlns:sodipodi="http://sodipodi.sourceforge.net/DTD/sodipodi-0.dtd"
   xmlns:inkscape="http://www.inkscape.org/namespaces/inkscape"
   width="25"
   height="25"
   viewBox="0 0 25 25"
   version="1.1"
   id="svg10"
   sodipodi:docname="likes-small.inline.svg"
   inkscape:version="0.92.3 (unknown)">
  <metadata
     id="metadata16">
    <rdf:RDF>
      <cc:Work
         rdf:about="">
        <dc:format>image/svg+xml</dc:format>
        <dc:type
           rdf:resource="http://purl.org/dc/dcmitype/StillImage" />
        <dc:title></dc:title>
      </cc:Work>
    </rdf:RDF>
  </metadata>
  <defs
     id="defs14" />
  <sodipodi:namedview
     pagecolor="#ffffff"
     bordercolor="#666666"
     borderopacity="1"
     objecttolerance="10"
     gridtolerance="10"
     guidetolerance="10"
     inkscape:pageopacity="0"
     inkscape:pageshadow="2"
     inkscape:window-width="1327"
     inkscape:window-height="1211"
     id="namedview12"
     showgrid="true"
     inkscape:zoom="8"
     inkscape:cx="13.567109"
     inkscape:cy="-7.7040066"
     inkscape:window-x="1860"
     inkscape:window-y="526"
     inkscape:window-maximized="0"
     inkscape:current-layer="svg10"
     showguides="true"
     inkscape:guide-bbox="true"
     inkscape:snap-global="true">
    <inkscape:grid
       type="xygrid"
       id="grid823"
       empspacing="5" />
    <sodipodi:guide
       position="12.5,25"
       orientation="1,0"
       id="guide1066"
       inkscape:locked="false"
       inkscape:label=""
       inkscape:color="rgb(0,0,255)" />
  </sodipodi:namedview>
  <path
     style="fill:currentColor"
     d="m 9.5507812,5.5273438 c -2.5652537,0 -4.6699218,2.0957724 -4.6699218,4.6582032 0,1.378904 0.7334727,2.507639 1.5429687,3.439453 0.809496,0.931814 1.7499207,1.722324 2.421875,2.390625 l 3.6406249,3.621094 3.640625,-3.621094 c 0.671885,-0.668279 1.61237,-1.458817 2.421875,-2.390625 0.809505,-0.931808 1.542969,-2.060532 1.542969,-3.439453 0,-2.5624308 -2.104668,-4.6582033 -4.669922,-4.6582032 -1.113513,0 -2.102552,0.4978494 -2.935547,1.2011718 C 11.653374,6.0256228 10.663578,5.5279212 9.5507812,5.5273438 Z m 0,2 c 0.8417008,4.367e-4 1.6314768,0.3978781 2.1347658,1.0703124 l 0.800781,1.0683594 0.800781,-1.0683594 c 0.503267,-0.6725025 1.293736,-1.0703125 2.134766,-1.0703124 1.487546,0 2.669922,1.1800337 2.669922,2.6582032 0,0.641579 -0.386239,1.359761 -1.052735,2.126953 -0.666495,0.767192 -1.55955,1.526535 -2.322265,2.285156 l -2.230469,2.21875 -2.230469,-2.21875 C 9.4931137,13.839057 8.6000728,13.079686 7.9335938,12.3125 7.2671147,11.545314 6.8808594,10.827142 6.8808594,10.185547 c 0,-1.4781695 1.1823756,-2.6582032 2.6699218,-2.6582032 z"
     id="path5493"
     inkscape:connector-curvature="0" />
</svg>
