<?xml version="1.0" encoding="UTF-8" standalone="no"?>
<svg
   xmlns:dc="http://purl.org/dc/elements/1.1/"
   xmlns:cc="http://creativecommons.org/ns#"
   xmlns:rdf="http://www.w3.org/1999/02/22-rdf-syntax-ns#"
   xmlns:svg="http://www.w3.org/2000/svg"
   xmlns="http://www.w3.org/2000/svg"
   xmlns:sodipodi="http://sodipodi.sourceforge.net/DTD/sodipodi-0.dtd"
   xmlns:inkscape="http://www.inkscape.org/namespaces/inkscape"
   width="25"
   height="25"
   viewBox="0 0 25 25"
   version="1.1"
   id="svg10"
   sodipodi:docname="likes.inline.svg"
   inkscape:version="0.92.3 (unknown)">
  <metadata
     id="metadata16">
    <rdf:RDF>
      <cc:Work
         rdf:about="">
        <dc:format>image/svg+xml</dc:format>
        <dc:type
           rdf:resource="http://purl.org/dc/dcmitype/StillImage" />
        <dc:title></dc:title>
      </cc:Work>
    </rdf:RDF>
  </metadata>
  <defs
     id="defs14" />
  <sodipodi:namedview
     pagecolor="#ffffff"
     bordercolor="#666666"
     borderopacity="1"
     objecttolerance="10"
     gridtolerance="10"
     guidetolerance="10"
     inkscape:pageopacity="0"
     inkscape:pageshadow="2"
     inkscape:window-width="1197"
     inkscape:window-height="1206"
     id="namedview12"
     showgrid="true"
     inkscape:zoom="11.313709"
     inkscape:cx="14.747018"
     inkscape:cy="25.146187"
     inkscape:window-x="2164"
     inkscape:window-y="579"
     inkscape:window-maximized="0"
     inkscape:current-layer="svg10"
     showguides="true"
     inkscape:guide-bbox="true"
     inkscape:snap-global="false">
    <inkscape:grid
       type="xygrid"
       id="grid823" />
    <sodipodi:guide
       position="12.5,25"
       orientation="1,0"
       id="guide1066"
       inkscape:locked="false"
       inkscape:label=""
       inkscape:color="rgb(0,0,255)" />
  </sodipodi:namedview>
  <path
     style="fill:currentColor"
     d="m 8.5,3.5976562 c -3.3018666,0 -6,2.6981544 -6,6 0,1.7482648 0.934742,3.2155518 2.0117188,4.4589848 1.0769767,1.243432 2.3490623,2.318157 3.28125,3.248047 L 12.5,22 17.207031,17.304688 c 0.932188,-0.92989 2.204273,-2.004615 3.28125,-3.248047 C 21.565258,12.813208 22.5,11.345921 22.5,9.5976562 c 0,-3.3018456 -2.698133,-6 -6,-6 -1.533466,1e-7 -2.900171,0.710249 -4,1.7402344 -1.099881,-1.0298204 -2.467067,-1.739456 -4,-1.7402344 z m 0,2 c 1.2600367,6.399e-4 2.444684,0.5962457 3.199219,1.6074219 L 12.5,8.2792969 13.300781,7.2050781 C 14.055437,6.1937396 15.24062,5.5976562 16.5,5.5976562 c 2.220973,0 4,1.7790457 4,4 0,1.0131348 -0.589169,2.0697698 -1.523438,3.1484378 -0.934268,1.078667 -2.160761,2.122267 -3.183593,3.142578 L 12.5,19.175781 9.2070312,15.888672 C 8.1841989,14.868361 6.9577057,13.824761 6.0234375,12.746094 5.0891693,11.667426 4.5,10.610791 4.5,9.5976562 c 0,-2.2209543 1.7790266,-4 4,-4 z"
     id="path7309"
     inkscape:connector-curvature="0" />
</svg>
