<?xml version="1.0" encoding="UTF-8" standalone="no"?>
<svg
   xmlns:dc="http://purl.org/dc/elements/1.1/"
   xmlns:cc="http://creativecommons.org/ns#"
   xmlns:rdf="http://www.w3.org/1999/02/22-rdf-syntax-ns#"
   xmlns:svg="http://www.w3.org/2000/svg"
   xmlns="http://www.w3.org/2000/svg"
   xmlns:sodipodi="http://sodipodi.sourceforge.net/DTD/sodipodi-0.dtd"
   xmlns:inkscape="http://www.inkscape.org/namespaces/inkscape"
   width="25"
   height="25"
   viewBox="0 0 25 25"
   version="1.1"
   id="svg10"
   sodipodi:docname="photo.inline.svg"
   inkscape:version="0.92.3 (unknown)">
  <metadata
     id="metadata16">
    <rdf:RDF>
      <cc:Work
         rdf:about="">
        <dc:format>image/svg+xml</dc:format>
        <dc:type
           rdf:resource="http://purl.org/dc/dcmitype/StillImage" />
        <dc:title></dc:title>
      </cc:Work>
    </rdf:RDF>
  </metadata>
  <defs
     id="defs14" />
  <sodipodi:namedview
     pagecolor="#ffffff"
     bordercolor="#666666"
     borderopacity="1"
     objecttolerance="10"
     gridtolerance="10"
     guidetolerance="10"
     inkscape:pageopacity="0"
     inkscape:pageshadow="2"
     inkscape:window-width="1197"
     inkscape:window-height="1206"
     id="namedview12"
     showgrid="true"
     inkscape:zoom="22.627417"
     inkscape:cx="12.775033"
     inkscape:cy="2.7094407"
     inkscape:window-x="1771"
     inkscape:window-y="554"
     inkscape:window-maximized="0"
     inkscape:current-layer="svg10">
    <inkscape:grid
       type="xygrid"
       id="grid823" />
  </sodipodi:namedview>
  <path
     style="fill:currentColor"
     d="m 11.5,2.9980469 c -0.987049,0 -1.8324583,0.3903634 -2.5410156,1 H 6.5 c -1.8138886,0 -3.2439332,1.2545313 -4.1308594,2.8066406 C 1.4822145,8.3567968 1,10.333425 1,12.498047 1,14.662664 1.482215,16.641249 2.3691406,18.193359 3.2560663,19.745469 4.6861091,20.998047 6.5,20.998047 h 2.4570312 c 0.7087974,0.609726 1.5553658,1 2.5429688,1 H 18 v -0.04883 c 0.164194,0.02273 0.327329,0.04883 0.5,0.04883 1.91523,0 3.309579,-1.45119 4.169922,-3.171875 C 23.530264,17.105487 24,14.909851 24,12.498047 24,10.086243 23.530264,7.8925602 22.669922,6.171875 21.809579,4.4511898 20.41523,2.9980469 18.5,2.9980469 c -0.172671,0 -0.335806,0.026074 -0.5,0.048828 v -0.048828 z m 0,3 h 2.925781 C 14.394889,6.056616 14.359704,6.112623 14.330078,6.171875 13.469736,7.8925602 13,10.086243 13,12.498047 c 0,2.411804 0.469736,4.60744 1.330078,6.328125 0.02923,0.05846 0.06329,0.114084 0.09375,0.171875 H 11.5 c -0.293876,0 -0.89895,-0.338924 -1.486328,-1.513672 C 9.4262941,16.309627 9,14.504518 9,12.498047 9,10.491576 9.4262941,8.6864663 10.013672,7.5117188 10.60105,6.3369712 11.206124,5.9980469 11.5,5.9980469 Z m 7,0 c 0.293909,0 0.898956,0.3389265 1.486328,1.5136719 C 20.573701,8.686464 21,10.491573 21,12.498047 c 0,2.006474 -0.426299,3.811583 -1.013672,4.986328 -0.587372,1.174745 -1.192419,1.513672 -1.486328,1.513672 -0.293909,0 -0.898956,-0.338927 -1.486328,-1.513672 C 16.426299,16.30963 16,14.504521 16,12.498047 16,10.491573 16.426299,8.686464 17.013672,7.5117188 17.601044,6.3369734 18.206091,5.9980469 18.5,5.9980469 Z m -12,1 H 6.9648438 C 6.3393204,8.5727023 6,10.455892 6,12.498047 c 0,2.04199 0.3394177,3.924992 0.9648438,5.5 H 6.5 c -0.3952091,0 -0.9645913,-0.311576 -1.5253906,-1.292969 C 4.41381,15.723686 4,14.199419 4,12.498047 4,10.796669 4.4138105,9.2743594 4.9746094,8.2929688 5.5354082,7.3115779 6.1047886,6.9980469 6.5,6.9980469 Z"
     id="ellipse7172"
     inkscape:connector-curvature="0" />
</svg>
